<?xml version="1.0" standalone="no"?>
<!DOCTYPE svg PUBLIC "-//W3C//DTD SVG 20010904//EN"
 "http://www.w3.org/TR/2001/REC-SVG-20010904/DTD/svg10.dtd">
<svg version="1.0" xmlns="http://www.w3.org/2000/svg"
 width="238.000000pt" height="70.000000pt" viewBox="0 0 238.000000 70.000000"
 preserveAspectRatio="xMidYMid meet">

<g transform="translate(0.000000,70.000000) scale(0.100000,-0.100000)"
fill="#000000" stroke="none">
<path d="M249 603 c-12 -31 -169 -495 -169 -501 0 -2 17 -2 37 0 37 3 37 4 62
81 l25 78 95 -3 95 -3 23 -77 24 -78 39 0 38 0 -87 263 -88 262 -41 3 c-38 3
-43 0 -53 -25z m81 -145 c17 -57 33 -111 36 -120 5 -16 -3 -18 -69 -18 l-74 0
36 120 c20 66 37 120 38 120 1 0 16 -46 33 -102z"/>
<path d="M580 365 l0 -265 94 0 c148 0 216 33 262 125 22 45 27 70 27 133 1
97 -15 152 -56 199 -51 58 -95 73 -219 73 l-108 0 0 -265z m237 179 c43 -32
65 -79 70 -147 12 -151 -58 -237 -194 -237 l-43 0 0 206 0 206 70 -4 c50 -3
77 -9 97 -24z"/>
<path d="M1080 364 l0 -265 33 3 32 3 -1 209 -2 209 67 -184 c60 -169 68 -184
91 -187 24 -3 28 5 92 180 l67 183 1 -207 0 -208 35 0 35 0 0 266 0 265 -47
-3 -48 -3 -66 -188 -65 -188 -69 190 -68 191 -43 0 -44 0 0 -266z"/>
<path d="M1660 365 l0 -265 35 0 35 0 0 265 0 265 -35 0 -35 0 0 -265z"/>
<path d="M1870 365 l0 -265 36 0 36 0 -3 210 c-3 143 -1 205 6 195 6 -8 60
-103 120 -210 l110 -195 38 0 37 0 0 265 0 265 -36 0 -36 0 3 -208 4 -208
-119 208 -118 208 -39 0 -39 0 0 -265z"/>
</g>
</svg>
